<svg xmlns="http://www.w3.org/2000/svg" width="36" height="36" id="social"><g transform="translate(-422 -164.362)"><rect width="36" height="36" x="422" y="164.362" fill="#fdb74d" style="isolation:auto;mix-blend-mode:normal" fill-opacity=".871" color="#000" opacity=".97" overflow="visible" rx="3" ry="3"></rect><g transform="translate(424 -854.942)"><path style="isolation:auto;mix-blend-mode:normal" d="M17 1031.362v9.8h-3v3.2l-2.958-3.2H2v-9.8z" color="#000" opacity=".15" overflow="visible"></path><path style="isolation:auto;mix-blend-mode:normal" d="m9 1041.362-3 1.5-1 .5 1 .5 3 1.5h16.5c.831 0 1.5-.669 1.5-1.5v-1c0-.83-.669-1.5-1.5-1.5H9z" color="#000" opacity=".15" overflow="visible" transform="rotate(-45 15.153 1032.507)"></path><path fill="#f05542" d="M1040.362-23h4v14h-4z" color="#000" opacity=".97" overflow="visible" style="isolation:auto;mix-blend-mode:normal" transform="rotate(45 -740.807 -719.378)"></path><path fill="#e9eded" d="M9 1040.362v4l-4-2zm15 0h1.5c.831 0 1.5.67 1.5 1.5v1c0 .831-.669 1.5-1.5 1.5H24z" color="#000" opacity=".97" overflow="visible" style="isolation:auto;mix-blend-mode:normal" transform="rotate(-45 15.153 1032.507)"></path><path fill="none" stroke="#34485c" d="m17.77 1043.827 10.607-10.607"></path><path fill="#34485c" style="isolation:auto;mix-blend-mode:normal" d="m6 1041.862-1 .5 1 .5v-1z" color="#000" opacity=".97" overflow="visible" transform="rotate(-45 15.153 1032.507)"></path><path style="isolation:auto;mix-blend-mode:normal" fill="#34485c" d="M1040.362-24h4v1h-4z" color="#000" opacity=".97" overflow="visible" transform="rotate(45 -740.807 -719.378)"></path><path fill="#4bbfeb" d="M16 1030.362v10h-3v3l-2.958-3H1v-10z" color="#000" overflow="visible" style="isolation:auto;mix-blend-mode:normal"></path><path d="M5.98 15.04a.98.98 0 0 0-.98.98.98.98 0 0 0 .98.98.98.98 0 0 0 .98-.98.98.98 0 0 0-.98-.98Zm3.52 0a.98.98 0 0 0-.98.98.98.98 0 0 0 .98.98.98.98 0 0 0 .98-.98.98.98 0 0 0-.98-.98Zm3.52 0a.98.98 0 0 0-.98.98.98.98 0 0 0 .98.98.98.98 0 0 0 .98-.98.98.98 0 0 0-.98-.98Z" color="#000" opacity=".15" overflow="visible" transform="translate(0 1020.362)" style="isolation:auto;mix-blend-mode:normal"></path><circle style="isolation:auto;mix-blend-mode:normal" cx="-12.019" cy="1035.381" r=".981" fill="#34485c" color="#000" overflow="visible" transform="scale(-1 1)"></circle><circle cx="-8.5" cy="1035.381" r=".981" fill="#34485c" color="#000" overflow="visible" transform="scale(-1 1)" style="isolation:auto;mix-blend-mode:normal"></circle><circle style="isolation:auto;mix-blend-mode:normal" cx="-4.981" cy="1035.381" r=".981" fill="#34485c" color="#000" overflow="visible" transform="scale(-1 1)"></circle></g></g></svg>